<svg xmlns="http://www.w3.org/2000/svg" viewBox="0 0 64 64" role="img" aria-labelledby="title">
  <title id="title">Best Cars logo mark</title>
  <rect width="64" height="64" rx="14" fill="#1f5d50"/>
  <path d="M16 35l4.8-11.2A8 8 0 0 1 28.2 19h7.6a8 8 0 0 1 7.4 4.8L48 35" fill="#ffffff"/>
  <path d="M13 34h38a5 5 0 0 1 5 5v6a3 3 0 0 1-3 3H11a3 3 0 0 1-3-3v-6a5 5 0 0 1 5-5z" fill="#d47a2a"/>
  <path d="M23.2 25.4A5 5 0 0 1 27.8 22h8.4a5 5 0 0 1 4.6 3.4l2.4 5.6H20.8l2.4-5.6z" fill="#dff4ef"/>
  <circle cx="20" cy="46" r="5" fill="#172321"/>
  <circle cx="44" cy="46" r="5" fill="#172321"/>
  <circle cx="20" cy="46" r="2" fill="#ffffff"/>
  <circle cx="44" cy="46" r="2" fill="#ffffff"/>
</svg>
